<svg width="13" height="14" viewBox="0 0 13 14" fill="none" xmlns="http://www.w3.org/2000/svg">
<path id="delete_24dp_1F1F1F_FILL1_wght400_GRAD0_opsz24" d="M2.33299 14C2.12815 14.003 1.92487 13.964 1.73569 13.8854C1.5465 13.8068 1.37543 13.6903 1.233 13.543C1.08575 13.4006 0.969223 13.2295 0.890625 13.0403C0.812027 12.8511 0.773022 12.6478 0.776001 12.443V2.33197H0V0.776001H3.88901V0H8.556V0.778015H12.445V2.33398H11.667V12.445C11.67 12.6498 11.631 12.8531 11.5524 13.0423C11.4738 13.2315 11.3573 13.4026 11.21 13.545C11.0676 13.6922 10.8965 13.8088 10.7073 13.8874C10.5181 13.966 10.3148 14.005 10.11 14.002L2.33299 14ZM3.88901 10.889H5.44501V3.88898H3.88901V10.889ZM7 10.889H8.556V3.88898H7V10.889Z" fill="#808199"/>
</svg>
