<svg width="16" height="16" viewBox="0 0 16 16" fill="none" xmlns="http://www.w3.org/2000/svg">
<path id="search_24dp_1F1F1F_FILL1_wght400_GRAD0_opsz24" d="M14.7561 16L9.15612 10.4C8.69542 10.7644 8.17735 11.0496 7.62311 11.244C7.03111 11.4538 6.40715 11.559 5.77911 11.555C5.01733 11.5702 4.26051 11.4292 3.55535 11.1406C2.85019 10.852 2.21165 10.422 1.67911 9.87703C1.13418 9.3445 0.704148 8.70591 0.415548 8.00075C0.126948 7.29558 -0.0141 6.53877 0.00111162 5.77699C-0.0141 5.01521 0.126948 4.2584 0.415548 3.55324C0.704148 2.84807 1.13418 2.20955 1.67911 1.67701C2.21165 1.13208 2.85019 0.702065 3.55535 0.413465C4.26051 0.124865 5.01733 -0.0161751 5.77911 -0.000963521C6.54089 -0.0161751 7.29771 0.124865 8.00287 0.413465C8.70804 0.702065 9.34658 1.13208 9.87911 1.67701C10.424 2.20955 10.8541 2.84807 11.1427 3.55324C11.4313 4.2584 11.5723 5.01521 11.5571 5.77699C11.5611 6.40504 11.4559 7.02899 11.2461 7.62098C11.0517 8.17522 10.7664 8.6933 10.4021 9.15401L16.0021 14.754L14.7561 16ZM5.77811 9.77803C6.305 9.78736 6.82821 9.68858 7.31547 9.48787C7.80272 9.28715 8.24366 8.98877 8.6111 8.61104C8.98884 8.24359 9.28728 7.80263 9.488 7.31538C9.68871 6.82813 9.78744 6.30492 9.77811 5.77803C9.78738 5.25115 9.68862 4.72792 9.48791 4.24067C9.2872 3.75343 8.98879 3.3125 8.6111 2.94502C8.24366 2.56729 7.80272 2.26884 7.31547 2.06813C6.82821 1.86741 6.305 1.7687 5.77811 1.77803C5.25122 1.7687 4.72801 1.86741 4.24076 2.06813C3.75351 2.26884 3.31256 2.56729 2.94511 2.94502C2.56743 3.3125 2.26903 3.75343 2.06832 4.24067C1.86761 4.72792 1.76884 5.25115 1.77811 5.77803C1.76878 6.30492 1.86752 6.82813 2.06823 7.31538C2.26895 7.80263 2.56738 8.24359 2.94511 8.61104C3.31256 8.98877 3.75351 9.28715 4.24076 9.48787C4.72801 9.68858 5.25122 9.78736 5.77811 9.77803Z" fill="#A2A3C2"/>
</svg>
